<svg width="1024" height="1024" xmlns="http://www.w3.org/2000/svg" xmlns:svg="http://www.w3.org/2000/svg" class="icon">
 <defs>
  <style type="text/css"/>
 </defs>
 <g>
  <title>Layer 1</title>
  <path id="svg_1" d="m512,0c-282.77,0 -512,71.634 -512,160l0,128c0,88.366 229.23,160 512,160s512,-71.634 512,-160l0,-128c0,-88.366 -229.23,-160 -512,-160z"/>
  <path id="svg_2" d="m512,544c-282.77,0 -512,-71.634 -512,-160l0,192c0,88.366 229.23,160 512,160s512,-71.634 512,-160l0,-192c0,88.366 -229.23,160 -512,160z"/>
  <path id="svg_3" d="m512,832c-282.77,0 -512,-71.634 -512,-160l0,192c0,88.366 229.23,160 512,160s512,-71.634 512,-160l0,-192c0,88.366 -229.23,160 -512,160z"/>
 </g>
</svg>

